<svg width="123" height="111" viewBox="0 0 123 111" fill="none" xmlns="http://www.w3.org/2000/svg">
<circle cx="61.4893" cy="36.7469" r="60.6817" stroke="#ECEFF2"/>
<path d="M101.554 36.7826C101.554 59.4503 83.5606 77.8261 61.3652 77.8261C39.1697 77.8261 21.1768 59.4503 21.1768 36.7826C21.1768 14.1149 39.1697 -4.26086 61.3652 -4.26086C83.5606 -4.26086 101.554 14.1149 101.554 36.7826Z" fill="#FFEADB"/>
<mask id="mask0_1020_48403" style="mask-type:alpha" maskUnits="userSpaceOnUse" x="0" y="-25" width="123" height="123">
<circle cx="61.4893" cy="36.7469" r="61.1817" fill="#D9D9D9"/>
</mask>
<g mask="url(#mask0_1020_48403)">
<g clip-path="url(#clip0_1020_48403)">
<ellipse cx="60.9678" cy="51.3914" rx="26.087" ry="13.913" fill="#808B9A"/>
<path d="M35.0691 56.7841C40.4476 61.0194 50.1397 63.9132 60.9324 63.9132C72.404 63.9132 82.6235 60.6436 87.7504 55.9703C87.6604 55.7983 87.6118 55.6017 87.6246 55.3921C87.8376 51.9432 83.4568 51.2379 83.2696 51.2089C82.8236 51.141 82.4663 50.8028 82.3691 50.3576C82.1261 49.2286 81.6616 48.4987 80.9512 48.1301C80.0293 47.6502 78.8559 47.8453 78.1598 48.0347C78.1684 48.0549 78.1769 48.0795 78.1798 48.0882C76.1351 46.025 74.9712 46.9949 74.7438 46.7728C71.3288 44.8325 69.7267 44.435 64.2412 42.9524C63.1564 42.1097 61.6184 41.5474 59.0385 41.6688C54.9607 41.8625 53.0941 44.0784 52.4623 45.0599C50.5014 44.435 51.8232 47.6132 50.9587 46.6456C50.8786 46.5588 48.8662 44.4094 45.7431 45.5412C42.6387 46.6615 42.8388 49.6305 42.8502 49.7562C42.8831 50.1754 42.6773 50.5773 42.3185 50.7912C41.9598 51.0051 41.5124 50.9921 41.1651 50.758C41.0607 50.6886 38.4894 49.0176 36.6556 50.6654C34.1772 52.8929 35.0062 56.4502 35.0434 56.6006C35.0577 56.6627 35.0648 56.7249 35.0691 56.7856V56.7841Z" fill="#FFEEC6"/>
<path fill-rule="evenodd" clip-rule="evenodd" d="M82.1325 40.6C82.8083 41.041 83.4566 41.5073 84.0696 42.0045C89.8268 46.6769 92.7451 53.8695 92.7451 63.384C92.7451 75.0087 79.492 83.445 61.2315 83.445C42.9709 83.445 29.7168 75.0076 29.7168 63.384C29.7168 53.8585 32.6219 46.6659 38.3548 42.0034C43.6501 37.6949 51.3477 35.5109 61.2337 35.5109C64.5136 35.5109 67.5477 35.7589 70.3403 36.2418C70.432 36.2654 70.5304 36.2906 70.6347 36.3172C72.9234 36.9025 76.2715 37.4784 79.0542 38.8697C80.7933 39.7393 81.1411 39.9132 82.1325 40.6ZM79.7402 41.7768L76.9672 40.6089C75.9237 40.261 74.6474 39.8141 72.7933 39.2176C71.7314 38.8759 70.191 38.5712 69.3304 38.3575C66.7991 37.9275 64.0792 37.6927 61.2315 37.6927C47.1858 37.6927 36.1829 43.3319 36.1829 50.529C36.1829 57.726 47.1858 63.3642 61.2315 63.3642C75.2772 63.3642 86.279 57.726 86.279 50.529C86.279 47.1179 84.6194 45.1306 81.1411 42.6958C80.7933 42.348 79.7303 41.7785 79.7402 41.7768ZM61.2309 79.2918C61.1588 79.2747 55.1193 76.9728 55.1193 72.6846C55.1193 71.7299 55.5063 70.8358 56.1865 70.1654C56.8667 69.4962 57.7675 69.1313 58.7222 69.139C59.6726 69.1467 60.5623 69.5227 61.2315 70.1963C61.8996 69.5216 62.7904 69.1467 63.7397 69.139C64.6944 69.1313 65.5951 69.4951 66.2754 70.1654C66.9556 70.8347 67.3426 71.7299 67.3426 72.6846C67.3426 76.9717 61.303 79.2747 61.2309 79.2918Z" fill="#FF974A"/>
<path d="M69.9852 66.9561C69.9951 66.8249 70.0971 66.7084 70.2384 66.6881C84.0363 64.9002 89.493 55.2765 89.5469 55.1797C89.6275 55.0383 89.802 54.9894 89.944 55.0623C90.0859 55.1351 90.1342 55.3173 90.0614 55.4593C90.0075 55.5561 84.4222 65.4418 70.3192 67.2609C70.1625 67.28 70.0157 67.168 69.9965 67.0113C69.9983 66.9881 69.9994 66.9727 70.0012 66.9496L69.9852 66.9561Z" fill="white"/>
<path d="M52.2287 66.9561C52.2187 66.8249 52.1168 66.7084 51.9755 66.6881C38.1776 64.9002 32.7209 55.2765 32.6669 55.1797C32.5864 55.0383 32.4119 54.9894 32.2699 55.0623C32.1279 55.1351 32.0796 55.3173 32.1525 55.4593C32.2064 55.5561 37.7917 65.4418 51.8947 67.2609C52.0514 67.28 52.1982 67.168 52.2173 67.0113C52.2156 66.9881 52.2144 66.9727 52.2127 66.9496L52.2287 66.9561Z" fill="white"/>
<path d="M63.7395 69.1401C62.7892 69.1479 61.8995 69.5238 61.2313 70.1974C60.5632 69.5227 59.6724 69.1479 58.7221 69.1401C57.7673 69.1324 56.8666 69.4962 56.1864 70.1666C55.5061 70.8358 55.1191 71.731 55.1191 72.6857C55.1191 76.9888 61.2038 79.293 61.2313 79.293C61.2589 79.293 67.3436 76.9899 67.3436 72.6857C67.3436 71.731 66.9566 70.8369 66.2763 70.1666C65.5961 69.4973 64.6954 69.1324 63.7406 69.1401H63.7395Z" fill="white"/>
<path d="M75.4067 18.4205C76.8539 19.3324 77.858 20.6701 78.3583 22.1615C79.9412 21.9828 81.5943 22.3195 83.0415 23.2314C86.3856 25.3386 87.3639 29.7195 85.2264 33.0164C83.4803 35.7097 80.1951 36.8463 77.2275 36.0235L70.3913 46.5679C72.4656 48.8781 72.8307 52.3492 71.0617 55.0778C68.9242 58.3747 64.4805 59.3391 61.1363 57.2319C59.6892 56.32 58.6851 54.9823 58.1848 53.4909C56.6018 53.6696 54.9487 53.3329 53.5016 52.421C50.1574 50.3138 49.1792 45.9329 51.3166 42.636C53.0628 39.9427 56.348 38.8061 59.3156 39.629L66.1518 29.0845C64.0775 26.7744 63.7123 23.3032 65.4813 20.5746C67.6188 17.2777 72.0625 16.3133 75.4067 18.4205Z" fill="white"/>
</g>
</g>
<defs>
<clipPath id="clip0_1020_48403">
<rect width="64" height="74.4348" fill="white" transform="translate(29.3154 9.65222)"/>
</clipPath>
</defs>
</svg>
